<svg xmlns="http://www.w3.org/2000/svg" xmlns:xlink="http://www.w3.org/1999/xlink" viewBox="0 0 700 540" width="700" height="540"><path d="M 122.500,521.625 C 123.500,518.639 123.000,518.625 123.500,515.625" stroke-width="5.467" stroke="black" fill="none" stroke-linecap="round"></path><path d="M 123.500,515.625 C 123.332,511.060 123.500,511.139 122.500,506.625" stroke-width="4.954" stroke="black" fill="none" stroke-linecap="round"></path><path d="M 122.500,506.625 C 121.924,502.947 121.832,503.060 120.500,499.625" stroke-width="4.707" stroke="black" fill="none" stroke-linecap="round"></path><path d="M 120.500,499.625 C 118.300,496.225 118.924,495.947 116.500,492.625" stroke-width="4.575" stroke="black" fill="none" stroke-linecap="round"></path><path d="M 116.500,492.625 C 115.378,488.912 114.800,489.225 113.500,485.625" stroke-width="4.553" stroke="black" fill="none" stroke-linecap="round"></path><path d="M 113.500,485.625 C 110.884,482.201 111.378,481.912 108.500,478.625" stroke-width="4.526" stroke="black" fill="none" stroke-linecap="round"></path><path d="M 108.500,478.625 C 107.076,476.077 106.884,476.201 105.500,473.625" stroke-width="4.236" stroke="black" fill="none" stroke-linecap="round"></path><path d="M 105.500,473.625 C 102.694,468.980 102.576,469.077 99.500,464.625" stroke-width="4.279" stroke="black" fill="none" stroke-linecap="round"></path><path d="M 99.500,464.625 C 97.136,461.501 97.194,461.480 94.500,458.625" stroke-width="3.917" stroke="black" fill="none" stroke-linecap="round"></path><path d="M 94.500,458.625 C 91.500,455.625 91.636,455.501 88.500,452.625" stroke-width="4.309" stroke="black" fill="none" stroke-linecap="round"></path><path d="M 88.500,452.625 C 86.611,450.501 86.500,450.625 84.500,448.625" stroke-width="4.247" stroke="black" fill="none" stroke-linecap="round"></path><path d="M 84.500,448.625 C 82.128,446.444 82.111,446.501 79.500,444.625" stroke-width="4.576" stroke="black" fill="none" stroke-linecap="round"></path><path d="M 79.500,444.625 C 75.638,441.853 75.628,441.944 71.500,439.625" stroke-width="4.433" stroke="black" fill="none" stroke-linecap="round"></path><path d="M 71.500,439.625 C 68.901,438.825 69.138,438.353 66.500,437.625" stroke-width="4.273" stroke="black" fill="none" stroke-linecap="round"></path><path d="M 66.500,437.625 C 64.031,436.071 63.901,436.325 61.500,434.625" stroke-width="4.167" stroke="black" fill="none" stroke-linecap="round"></path><path d="M 61.500,434.625 C 57.041,432.047 57.031,432.071 52.500,429.625" stroke-width="4.229" stroke="black" fill="none" stroke-linecap="round"></path><path d="M 52.500,429.625 C 49.500,428.125 49.541,428.047 46.500,426.625" stroke-width="4.547" stroke="black" fill="none" stroke-linecap="round"></path><path d="M 46.500,426.625 C 43.551,425.012 43.500,425.125 40.500,423.625" stroke-width="4.652" stroke="black" fill="none" stroke-linecap="round"></path><path d="M 40.500,423.625 C 38.000,422.625 38.051,422.512 35.500,421.625" stroke-width="4.793" stroke="black" fill="none" stroke-linecap="round"></path><path d="M 35.500,421.625 C 29.754,419.811 33.000,420.625 30.500,419.625" stroke-width="4.823" stroke="black" fill="none" stroke-linecap="round"></path><path d="M 30.500,419.625 C 35.155,419.539 31.754,419.311 39.500,420.625" stroke-width="5.270" stroke="black" fill="none" stroke-linecap="round"></path><path d="M 39.500,420.625 C 43.044,422.030 43.155,421.539 46.500,423.625" stroke-width="4.779" stroke="black" fill="none" stroke-linecap="round"></path><path d="M 46.500,423.625 C 49.375,425.489 49.544,425.030 52.500,426.625" stroke-width="4.706" stroke="black" fill="none" stroke-linecap="round"></path><path d="M 52.500,426.625 C 55.029,427.007 54.875,427.489 57.500,427.625" stroke-width="4.834" stroke="black" fill="none" stroke-linecap="round"></path><path d="M 57.500,427.625 C 60.959,428.808 61.029,428.507 64.500,429.625" stroke-width="5.055" stroke="black" fill="none" stroke-linecap="round"></path><path d="M 64.500,429.625 C 67.508,430.081 67.459,430.308 70.500,430.625" stroke-width="5.117" stroke="black" fill="none" stroke-linecap="round"></path><path d="M 70.500,430.625 C 73.000,431.125 73.008,431.081 75.500,431.625" stroke-width="4.970" stroke="black" fill="none" stroke-linecap="round"></path><path d="M 75.500,431.625 C 77.992,432.169 78.000,432.125 80.500,432.625" stroke-width="4.915" stroke="black" fill="none" stroke-linecap="round"></path><path d="M 80.500,432.625 C 83.508,433.081 83.492,433.169 86.500,433.625" stroke-width="5.077" stroke="black" fill="none" stroke-linecap="round"></path><path d="M 86.500,433.625 C 89.000,434.125 89.008,434.081 91.500,434.625" stroke-width="4.946" stroke="black" fill="none" stroke-linecap="round"></path><path d="M 91.500,434.625 C 94.045,434.955 94.000,435.125 96.500,435.625" stroke-width="5.195" stroke="black" fill="none" stroke-linecap="round"></path><path d="M 96.500,435.625 C 99.551,436.491 99.545,436.455 102.500,437.625" stroke-width="5.217" stroke="black" fill="none" stroke-linecap="round"></path><path d="M 102.500,437.625 C 105.906,439.427 106.051,438.991 109.500,440.625" stroke-width="4.987" stroke="black" fill="none" stroke-linecap="round"></path><path d="M 109.500,440.625 C 112.798,442.598 111.906,441.427 114.500,441.625" stroke-width="5.220" stroke="black" fill="none" stroke-linecap="round"></path><path d="M 114.500,441.625 C 116.265,439.208 116.298,440.598 116.500,436.625" stroke-width="5.423" stroke="black" fill="none" stroke-linecap="round"></path><path d="M 116.500,436.625 C 116.235,433.567 116.765,433.708 115.500,430.625" stroke-width="4.933" stroke="black" fill="none" stroke-linecap="round"></path><path d="M 115.500,430.625 C 114.330,427.670 114.735,427.567 113.500,424.625" stroke-width="4.798" stroke="black" fill="none" stroke-linecap="round"></path><path d="M 113.500,424.625 C 113.073,422.109 112.830,422.170 112.500,419.625" stroke-width="4.458" stroke="black" fill="none" stroke-linecap="round"></path><path d="M 112.500,419.625 C 111.363,415.653 111.573,415.609 110.500,411.625" stroke-width="4.488" stroke="black" fill="none" stroke-linecap="round"></path><path d="M 110.500,411.625 C 110.235,408.567 109.863,408.653 109.500,405.625" stroke-width="4.668" stroke="black" fill="none" stroke-linecap="round"></path><path d="M 109.500,405.625 C 108.713,402.537 108.735,402.567 107.500,399.625" stroke-width="4.883" stroke="black" fill="none" stroke-linecap="round"></path><path d="M 107.500,399.625 C 105.474,396.789 106.213,396.537 104.500,393.625" stroke-width="5.032" stroke="black" fill="none" stroke-linecap="round"></path><path d="M 104.500,393.625 C 104.239,390.074 103.474,390.289 103.500,386.625" stroke-width="4.950" stroke="black" fill="none" stroke-linecap="round"></path><path d="M 103.500,386.625 C 102.317,383.166 102.739,383.074 101.500,379.625" stroke-width="4.706" stroke="black" fill="none" stroke-linecap="round"></path><path d="M 101.500,379.625 C 101.235,376.567 100.817,376.666 100.500,373.625" stroke-width="4.736" stroke="black" fill="none" stroke-linecap="round"></path><path d="M 100.500,373.625 C 99.208,370.694 99.735,370.567 98.500,367.625" stroke-width="4.741" stroke="black" fill="none" stroke-linecap="round"></path><path d="M 98.500,367.625 C 98.352,364.031 97.708,364.194 97.500,360.625" stroke-width="4.870" stroke="black" fill="none" stroke-linecap="round"></path><path d="M 97.500,360.625 C 95.973,358.226 96.852,358.031 95.500,355.625" stroke-width="4.846" stroke="black" fill="none" stroke-linecap="round"></path><path d="M 95.500,355.625 C 95.500,352.625 94.973,352.726 95.500,349.625" stroke-width="4.968" stroke="black" fill="none" stroke-linecap="round"></path><path d="M 95.500,349.625 C 95.500,346.625 95.500,346.625 95.500,343.625" stroke-width="5.103" stroke="black" fill="none" stroke-linecap="round"></path><path d="M 95.500,343.625 C 95.500,337.625 95.500,340.625 95.500,337.625" stroke-width="5.140" stroke="black" fill="none" stroke-linecap="round"></path><path d="M 95.500,337.625 C 95.230,340.652 95.500,337.625 95.500,343.625" stroke-width="5.412" stroke="black" fill="none" stroke-linecap="round"></path><path d="M 95.500,343.625 C 95.770,346.193 95.730,346.152 96.500,348.625" stroke-width="5.200" stroke="black" fill="none" stroke-linecap="round"></path><path d="M 96.500,348.625 C 97.730,351.057 97.270,351.193 98.500,353.625" stroke-width="5.262" stroke="black" fill="none" stroke-linecap="round"></path><path d="M 98.500,353.625 C 98.770,356.193 99.230,356.057 99.500,358.625" stroke-width="5.230" stroke="black" fill="none" stroke-linecap="round"></path><path d="M 99.500,358.625 C 100.500,361.125 100.270,361.193 101.500,363.625" stroke-width="5.123" stroke="black" fill="none" stroke-linecap="round"></path><path d="M 101.500,363.625 C 102.130,366.341 102.500,366.125 103.500,368.625" stroke-width="5.185" stroke="black" fill="none" stroke-linecap="round"></path><path d="M 103.500,368.625 C 105.580,371.065 105.130,371.341 107.500,373.625" stroke-width="5.140" stroke="black" fill="none" stroke-linecap="round"></path><path d="M 107.500,373.625 C 110.378,376.912 110.080,377.065 112.500,380.625" stroke-width="4.907" stroke="black" fill="none" stroke-linecap="round"></path><path d="M 112.500,380.625 C 113.426,384.514 114.378,383.912 115.500,387.625" stroke-width="4.666" stroke="black" fill="none" stroke-linecap="round"></path><path d="M 115.500,387.625 C 118.358,389.840 117.426,390.514 120.500,392.625" stroke-width="4.659" stroke="black" fill="none" stroke-linecap="round"></path><path d="M 120.500,392.625 C 122.522,397.051 123.358,396.340 125.500,400.625" stroke-width="4.730" stroke="black" fill="none" stroke-linecap="round"></path><path d="M 125.500,400.625 C 128.250,402.375 127.522,403.051 130.500,404.625" stroke-width="4.907" stroke="black" fill="none" stroke-linecap="round"></path><path d="M 130.500,404.625 C 132.580,407.065 132.750,406.875 134.500,409.625" stroke-width="4.784" stroke="black" fill="none" stroke-linecap="round"></path><path d="M 134.500,409.625 C 136.785,413.307 137.080,413.065 139.500,416.625" stroke-width="4.785" stroke="black" fill="none" stroke-linecap="round"></path><path d="M 139.500,416.625 C 141.500,418.625 141.285,418.807 143.500,420.625" stroke-width="4.811" stroke="black" fill="none" stroke-linecap="round"></path><path d="M 143.500,420.625 C 145.624,422.514 145.500,422.625 147.500,424.625" stroke-width="4.805" stroke="black" fill="none" stroke-linecap="round"></path><path d="M 147.500,424.625 C 149.376,427.236 149.624,427.014 151.500,429.625" stroke-width="4.938" stroke="black" fill="none" stroke-linecap="round"></path><path d="M 151.500,429.625 C 153.284,431.902 153.376,431.736 155.500,433.625" stroke-width="5.011" stroke="black" fill="none" stroke-linecap="round"></path><path d="M 155.500,433.625 C 158.240,434.817 157.784,435.402 160.500,436.625" stroke-width="5.124" stroke="black" fill="none" stroke-linecap="round"></path><path d="M 160.500,436.625 C 162.696,439.522 163.240,438.817 165.500,441.625" stroke-width="4.985" stroke="black" fill="none" stroke-linecap="round"></path><path d="M 165.500,441.625 C 169.018,443.594 168.696,444.022 172.500,445.625" stroke-width="4.886" stroke="black" fill="none" stroke-linecap="round"></path><path d="M 172.500,445.625 C 174.833,447.558 175.018,447.094 177.500,448.625" stroke-width="5.084" stroke="black" fill="none" stroke-linecap="round"></path><path d="M 177.500,448.625 C 180.029,449.007 179.833,449.558 182.500,449.625" stroke-width="5.092" stroke="black" fill="none" stroke-linecap="round"></path><path d="M 182.500,449.625 C 185.971,450.743 186.029,450.507 189.500,451.625" stroke-width="4.972" stroke="black" fill="none" stroke-linecap="round"></path><path d="M 189.500,451.625 C 191.973,452.395 191.971,452.243 194.500,452.625" stroke-width="4.902" stroke="black" fill="none" stroke-linecap="round"></path><path d="M 194.500,452.625 C 197.500,452.625 197.473,452.895 200.500,452.625" stroke-width="4.801" stroke="black" fill="none" stroke-linecap="round"></path><path d="M 200.500,452.625 C 204.693,453.441 204.500,452.625 208.500,452.625" stroke-width="4.956" stroke="black" fill="none" stroke-linecap="round"></path><path d="M 208.500,452.625 C 212.093,451.765 211.693,451.941 214.500,449.625" stroke-width="5.065" stroke="black" fill="none" stroke-linecap="round"></path><path d="M 214.500,449.625 C 216.301,447.263 216.593,447.765 217.500,444.625" stroke-width="5.137" stroke="black" fill="none" stroke-linecap="round"></path><path d="M 217.500,444.625 C 218.735,441.683 218.801,441.763 219.500,438.625" stroke-width="4.855" stroke="black" fill="none" stroke-linecap="round"></path><path d="M 219.500,438.625 C 220.248,435.646 220.235,435.683 220.500,432.625" stroke-width="4.781" stroke="black" fill="none" stroke-linecap="round"></path><path d="M 220.500,432.625 C 220.500,429.625 220.748,429.646 220.500,426.625" stroke-width="4.766" stroke="black" fill="none" stroke-linecap="round"></path><path d="M 220.500,426.625 C 220.500,423.125 220.500,423.125 220.500,419.625" stroke-width="4.695" stroke="black" fill="none" stroke-linecap="round"></path><path d="M 220.500,419.625 C 221.316,415.432 220.500,415.625 220.500,411.625" stroke-width="4.802" stroke="black" fill="none" stroke-linecap="round"></path><path d="M 220.500,411.625 C 219.307,408.435 219.816,408.432 217.500,405.625" stroke-width="4.911" stroke="black" fill="none" stroke-linecap="round"></path><path d="M 217.500,405.625 C 214.622,401.527 214.807,401.435 211.500,397.625" stroke-width="4.479" stroke="black" fill="none" stroke-linecap="round"></path><path d="M 211.500,397.625 C 208.478,394.144 208.622,394.027 205.500,390.625" stroke-width="4.421" stroke="black" fill="none" stroke-linecap="round"></path><path d="M 205.500,390.625 C 203.360,387.225 202.978,387.644 200.500,384.625" stroke-width="4.527" stroke="black" fill="none" stroke-linecap="round"></path><path d="M 200.500,384.625 C 197.649,382.342 197.860,382.225 194.500,380.625" stroke-width="4.589" stroke="black" fill="none" stroke-linecap="round"></path><path d="M 194.500,380.625 C 192.068,379.395 192.149,379.342 189.500,378.625" stroke-width="5.005" stroke="black" fill="none" stroke-linecap="round"></path><path d="M 189.500,378.625 C 186.633,376.914 187.068,377.895 184.500,377.625" stroke-width="5.308" stroke="black" fill="none" stroke-linecap="round"></path><path d="M 184.500,377.625 C 181.916,379.264 182.133,378.414 180.500,381.625" stroke-width="5.335" stroke="black" fill="none" stroke-linecap="round"></path><path d="M 180.500,381.625 C 179.330,384.580 178.916,384.264 178.500,387.625" stroke-width="5.083" stroke="black" fill="none" stroke-linecap="round"></path><path d="M 178.500,387.625 C 177.730,390.098 177.830,390.080 177.500,392.625" stroke-width="5.098" stroke="black" fill="none" stroke-linecap="round"></path><path d="M 177.500,392.625 C 177.500,395.625 177.230,395.598 177.500,398.625" stroke-width="5.045" stroke="black" fill="none" stroke-linecap="round"></path><path d="M 177.500,398.625 C 177.230,401.652 177.500,401.625 177.500,404.625" stroke-width="5.127" stroke="black" fill="none" stroke-linecap="round"></path><path d="M 177.500,404.625 C 177.830,407.170 177.730,407.152 178.500,409.625" stroke-width="5.111" stroke="black" fill="none" stroke-linecap="round"></path><path d="M 178.500,409.625 C 179.098,412.821 179.330,412.670 180.500,415.625" stroke-width="5.028" stroke="black" fill="none" stroke-linecap="round"></path><path d="M 180.500,415.625 C 181.924,419.335 182.098,418.821 184.500,421.625" stroke-width="5.150" stroke="black" fill="none" stroke-linecap="round"></path><path d="M 184.500,421.625 C 187.099,422.425 186.424,423.335 189.500,423.625" stroke-width="5.268" stroke="black" fill="none" stroke-linecap="round"></path><path d="M 189.500,423.625 C 191.901,425.325 192.099,424.925 194.500,426.625" stroke-width="5.309" stroke="black" fill="none" stroke-linecap="round"></path><path d="M 194.500,426.625 C 196.932,427.855 196.901,427.825 199.500,428.625" stroke-width="5.351" stroke="black" fill="none" stroke-linecap="round"></path><path d="M 199.500,428.625 C 201.973,429.395 201.932,429.355 204.500,429.625" stroke-width="5.176" stroke="black" fill="none" stroke-linecap="round"></path><path d="M 204.500,429.625 C 207.579,430.112 207.473,429.895 210.500,429.625" stroke-width="5.067" stroke="black" fill="none" stroke-linecap="round"></path><path d="M 210.500,429.625 C 214.159,429.446 213.579,429.112 216.500,427.625" stroke-width="5.354" stroke="black" fill="none" stroke-linecap="round"></path><path d="M 216.500,427.625 C 218.200,425.224 218.659,425.946 219.500,422.625" stroke-width="5.365" stroke="black" fill="none" stroke-linecap="round"></path><path d="M 219.500,422.625 C 221.027,420.226 220.700,420.224 221.500,417.625" stroke-width="5.363" stroke="black" fill="none" stroke-linecap="round"></path><path d="M 221.500,417.625 C 222.027,414.524 222.027,414.726 221.500,411.625" stroke-width="5.310" stroke="black" fill="none" stroke-linecap="round"></path><path d="M 221.500,411.625 C 220.420,409.154 221.027,409.024 219.500,406.625" stroke-width="5.306" stroke="black" fill="none" stroke-linecap="round"></path><path d="M 219.500,406.625 C 218.801,403.487 218.420,403.654 217.500,400.625" stroke-width="5.206" stroke="black" fill="none" stroke-linecap="round"></path><path d="M 217.500,400.625 C 215.699,398.263 216.301,397.987 214.500,395.625" stroke-width="5.087" stroke="black" fill="none" stroke-linecap="round"></path><path d="M 214.500,395.625 C 213.801,392.487 213.199,392.763 212.500,389.625" stroke-width="5.277" stroke="black" fill="none" stroke-linecap="round"></path><path d="M 212.500,389.625 C 210.800,387.224 211.301,386.987 209.500,384.625" stroke-width="5.333" stroke="black" fill="none" stroke-linecap="round"></path><path d="M 209.500,384.625 C 208.500,382.125 208.300,382.224 207.500,379.625" stroke-width="5.401" stroke="black" fill="none" stroke-linecap="round"></path><path d="M 207.500,379.625 C 205.277,374.402 206.500,377.125 205.500,374.625" stroke-width="5.437" stroke="black" fill="none" stroke-linecap="round"></path><path d="M 205.500,374.625 C 207.113,377.574 205.777,374.902 208.500,380.625" stroke-width="5.507" stroke="black" fill="none" stroke-linecap="round"></path><path d="M 208.500,380.625 C 209.217,383.274 209.613,383.074 210.500,385.625" stroke-width="5.214" stroke="black" fill="none" stroke-linecap="round"></path><path d="M 210.500,385.625 C 212.783,388.476 212.217,388.774 214.500,391.625" stroke-width="5.197" stroke="black" fill="none" stroke-linecap="round"></path><path d="M 214.500,391.625 C 215.037,394.430 215.783,393.976 216.500,396.625" stroke-width="5.256" stroke="black" fill="none" stroke-linecap="round"></path><path d="M 216.500,396.625 C 218.284,398.902 218.037,398.930 220.500,400.625" stroke-width="5.231" stroke="black" fill="none" stroke-linecap="round"></path><path d="M 220.500,400.625 C 222.833,402.558 222.784,402.402 225.500,403.625" stroke-width="5.277" stroke="black" fill="none" stroke-linecap="round"></path><path d="M 225.500,403.625 C 227.973,404.395 227.833,404.558 230.500,404.625" stroke-width="5.372" stroke="black" fill="none" stroke-linecap="round"></path><path d="M 230.500,404.625 C 233.527,404.895 233.473,404.895 236.500,404.625" stroke-width="5.442" stroke="black" fill="none" stroke-linecap="round"></path><path d="M 236.500,404.625 C 238.971,403.836 239.027,404.395 241.500,403.625" stroke-width="5.473" stroke="black" fill="none" stroke-linecap="round"></path><path d="M 241.500,403.625 C 245.000,403.625 244.971,403.336 248.500,403.625" stroke-width="5.310" stroke="black" fill="none" stroke-linecap="round"></path><path d="M 248.500,403.625 C 252.375,405.041 251.500,403.625 254.500,403.625" stroke-width="5.363" stroke="black" fill="none" stroke-linecap="round"></path><path d="M 254.500,403.625 C 256.708,400.792 256.875,402.041 257.500,397.625" stroke-width="5.433" stroke="black" fill="none" stroke-linecap="round"></path><path d="M 257.500,397.625 C 257.500,394.625 258.208,394.792 257.500,391.625" stroke-width="4.960" stroke="black" fill="none" stroke-linecap="round"></path><path d="M 257.500,391.625 C 258.496,387.360 257.500,387.625 257.500,383.625" stroke-width="4.882" stroke="black" fill="none" stroke-linecap="round"></path><path d="M 257.500,383.625 C 255.410,380.173 256.496,379.860 253.500,376.625" stroke-width="4.642" stroke="black" fill="none" stroke-linecap="round"></path><path d="M 253.500,376.625 C 252.187,373.517 251.910,373.673 250.500,370.625" stroke-width="4.681" stroke="black" fill="none" stroke-linecap="round"></path><path d="M 250.500,370.625 C 248.660,367.505 248.687,367.517 246.500,364.625" stroke-width="4.636" stroke="black" fill="none" stroke-linecap="round"></path><path d="M 246.500,364.625 C 244.110,361.525 244.160,361.505 241.500,358.625" stroke-width="4.574" stroke="black" fill="none" stroke-linecap="round"></path><path d="M 241.500,358.625 C 239.223,356.841 239.610,356.525 237.500,354.625" stroke-width="4.745" stroke="black" fill="none" stroke-linecap="round"></path><path d="M 237.500,354.625 C 236.210,351.976 235.723,352.341 234.500,349.625" stroke-width="4.292" stroke="black" fill="none" stroke-linecap="round"></path><path d="M 234.500,349.625 C 231.840,346.745 232.210,346.476 229.500,343.625" stroke-width="4.468" stroke="black" fill="none" stroke-linecap="round"></path><path d="M 229.500,343.625 C 227.500,340.625 227.340,340.745 225.500,337.625" stroke-width="4.588" stroke="black" fill="none" stroke-linecap="round"></path><path d="M 225.500,337.625 C 223.742,334.427 223.500,334.625 221.500,331.625" stroke-width="4.608" stroke="black" fill="none" stroke-linecap="round"></path><path d="M 221.500,331.625 C 219.376,329.736 219.742,329.427 217.500,327.625" stroke-width="4.756" stroke="black" fill="none" stroke-linecap="round"></path><path d="M 217.500,327.625 C 215.500,325.125 215.376,325.236 213.500,322.625" stroke-width="4.724" stroke="black" fill="none" stroke-linecap="round"></path><path d="M 213.500,322.625 C 211.638,320.001 211.500,320.125 209.500,317.625" stroke-width="4.731" stroke="black" fill="none" stroke-linecap="round"></path><path d="M 209.500,317.625 C 206.862,315.249 207.138,315.001 204.500,312.625" stroke-width="4.867" stroke="black" fill="none" stroke-linecap="round"></path><path d="M 204.500,312.625 C 202.332,310.242 202.362,310.249 200.500,307.625" stroke-width="4.950" stroke="black" fill="none" stroke-linecap="round"></path><path d="M 200.500,307.625 C 199.168,305.008 198.832,305.242 197.500,302.625" stroke-width="5.018" stroke="black" fill="none" stroke-linecap="round"></path><path d="M 197.500,302.625 C 195.332,300.242 195.668,300.008 193.500,297.625" stroke-width="4.988" stroke="black" fill="none" stroke-linecap="round"></path><path d="M 193.500,297.625 C 192.000,295.125 191.832,295.242 190.500,292.625" stroke-width="5.023" stroke="black" fill="none" stroke-linecap="round"></path><path d="M 190.500,292.625 C 188.800,290.224 189.000,290.125 187.500,287.625" stroke-width="5.124" stroke="black" fill="none" stroke-linecap="round"></path><path d="M 187.500,287.625 C 186.700,285.026 186.300,285.224 185.500,282.625" stroke-width="5.092" stroke="black" fill="none" stroke-linecap="round"></path><path d="M 185.500,282.625 C 183.800,280.224 184.200,280.026 182.500,277.625" stroke-width="5.263" stroke="black" fill="none" stroke-linecap="round"></path><path d="M 182.500,277.625 C 181.500,275.125 181.300,275.224 180.500,272.625" stroke-width="5.409" stroke="black" fill="none" stroke-linecap="round"></path><path d="M 180.500,272.625 C 178.735,267.390 179.500,270.125 178.500,267.625" stroke-width="5.357" stroke="black" fill="none" stroke-linecap="round"></path><path d="M 178.500,267.625 C 178.704,270.708 178.235,267.890 179.500,273.625" stroke-width="5.497" stroke="black" fill="none" stroke-linecap="round"></path><path d="M 179.500,273.625 C 180.580,276.096 180.204,276.208 181.500,278.625" stroke-width="5.189" stroke="black" fill="none" stroke-linecap="round"></path><path d="M 181.500,278.625 C 182.199,281.763 182.580,281.596 183.500,284.625" stroke-width="5.164" stroke="black" fill="none" stroke-linecap="round"></path><path d="M 183.500,284.625 C 185.000,287.125 184.699,287.263 186.500,289.625" stroke-width="5.067" stroke="black" fill="none" stroke-linecap="round"></path><path d="M 186.500,289.625 C 188.000,292.125 188.000,292.125 189.500,294.625" stroke-width="4.863" stroke="black" fill="none" stroke-linecap="round"></path><path d="M 189.500,294.625 C 191.000,297.125 191.000,297.125 192.500,299.625" stroke-width="4.984" stroke="black" fill="none" stroke-linecap="round"></path><path d="M 192.500,299.625 C 193.692,302.365 194.000,302.125 195.500,304.625" stroke-width="4.824" stroke="black" fill="none" stroke-linecap="round"></path><path d="M 195.500,304.625 C 198.308,306.885 197.692,307.365 200.500,309.625" stroke-width="4.705" stroke="black" fill="none" stroke-linecap="round"></path><path d="M 200.500,309.625 C 201.790,312.274 202.308,311.885 203.500,314.625" stroke-width="4.742" stroke="black" fill="none" stroke-linecap="round"></path><path d="M 203.500,314.625 C 205.890,317.725 205.790,317.774 208.500,320.625" stroke-width="4.809" stroke="black" fill="none" stroke-linecap="round"></path><path d="M 208.500,320.625 C 210.500,322.625 210.390,322.725 212.500,324.625" stroke-width="4.818" stroke="black" fill="none" stroke-linecap="round"></path><path d="M 212.500,324.625 C 215.833,327.365 215.500,327.625 218.500,330.625" stroke-width="4.812" stroke="black" fill="none" stroke-linecap="round"></path><path d="M 218.500,330.625 C 219.790,333.274 220.333,332.865 221.500,335.625" stroke-width="4.975" stroke="black" fill="none" stroke-linecap="round"></path><path d="M 221.500,335.625 C 224.027,338.603 223.790,338.774 226.500,341.625" stroke-width="4.897" stroke="black" fill="none" stroke-linecap="round"></path><path d="M 226.500,341.625 C 228.500,344.125 228.527,344.103 230.500,346.625" stroke-width="5.061" stroke="black" fill="none" stroke-linecap="round"></path><path d="M 230.500,346.625 C 232.376,349.236 232.500,349.125 234.500,351.625" stroke-width="5.112" stroke="black" fill="none" stroke-linecap="round"></path><path d="M 234.500,351.625 C 236.389,353.749 236.376,353.736 238.500,355.625" stroke-width="5.071" stroke="black" fill="none" stroke-linecap="round"></path><path d="M 238.500,355.625 C 241.000,357.625 240.889,357.749 243.500,359.625" stroke-width="5.085" stroke="black" fill="none" stroke-linecap="round"></path><path d="M 243.500,359.625 C 245.883,361.793 246.000,361.625 248.500,363.625" stroke-width="4.834" stroke="black" fill="none" stroke-linecap="round"></path><path d="M 248.500,363.625 C 251.000,365.125 250.883,365.293 253.500,366.625" stroke-width="4.975" stroke="black" fill="none" stroke-linecap="round"></path><path d="M 253.500,366.625 C 256.216,367.848 256.000,368.125 258.500,369.625" stroke-width="5.046" stroke="black" fill="none" stroke-linecap="round"></path><path d="M 258.500,369.625 C 260.963,371.320 260.716,371.348 262.500,373.625" stroke-width="5.415" stroke="black" fill="none" stroke-linecap="round"></path><path d="M 262.500,373.625 C 264.740,378.625 263.963,375.820 264.500,378.625" stroke-width="5.396" stroke="black" fill="none" stroke-linecap="round"></path><path d="M 264.500,378.625 C 263.000,376.125 264.240,378.625 261.500,373.625" stroke-width="5.521" stroke="black" fill="none" stroke-linecap="round"></path><path d="M 261.500,373.625 C 259.800,371.224 260.000,371.125 258.500,368.625" stroke-width="5.265" stroke="black" fill="none" stroke-linecap="round"></path><path d="M 258.500,368.625 C 257.783,365.976 257.300,366.224 256.500,363.625" stroke-width="5.224" stroke="black" fill="none" stroke-linecap="round"></path><path d="M 256.500,363.625 C 254.313,360.733 254.783,360.476 252.500,357.625" stroke-width="5.004" stroke="black" fill="none" stroke-linecap="round"></path><path d="M 252.500,357.625 C 250.887,354.676 250.813,354.733 249.500,351.625" stroke-width="4.973" stroke="black" fill="none" stroke-linecap="round"></path><path d="M 249.500,351.625 C 248.700,349.026 248.387,349.176 247.500,346.625" stroke-width="4.876" stroke="black" fill="none" stroke-linecap="round"></path><path d="M 247.500,346.625 C 245.717,344.262 246.200,344.026 244.500,341.625" stroke-width="4.824" stroke="black" fill="none" stroke-linecap="round"></path><path d="M 244.500,341.625 C 242.850,337.675 242.717,337.762 241.500,333.625" stroke-width="4.810" stroke="black" fill="none" stroke-linecap="round"></path><path d="M 241.500,333.625 C 240.261,330.176 240.350,330.175 239.500,326.625" stroke-width="4.667" stroke="black" fill="none" stroke-linecap="round"></path><path d="M 239.500,326.625 C 239.292,323.056 238.761,323.176 238.500,319.625" stroke-width="4.847" stroke="black" fill="none" stroke-linecap="round"></path><path d="M 238.500,319.625 C 237.013,316.704 237.792,316.556 236.500,313.625" stroke-width="4.948" stroke="black" fill="none" stroke-linecap="round"></path><path d="M 236.500,313.625 C 235.471,310.199 236.013,310.704 236.500,307.625" stroke-width="5.222" stroke="black" fill="none" stroke-linecap="round"></path><path d="M 236.500,307.625 C 238.042,304.519 237.471,305.199 240.500,303.625" stroke-width="5.471" stroke="black" fill="none" stroke-linecap="round"></path><path d="M 240.500,303.625 C 244.181,302.859 243.542,302.519 247.500,303.625" stroke-width="5.494" stroke="black" fill="none" stroke-linecap="round"></path><path d="M 247.500,303.625 C 250.558,305.020 250.681,304.359 253.500,306.625" stroke-width="4.894" stroke="black" fill="none" stroke-linecap="round"></path><path d="M 253.500,306.625 C 256.216,307.848 256.058,308.020 258.500,309.625" stroke-width="4.993" stroke="black" fill="none" stroke-linecap="round"></path><path d="M 258.500,309.625 C 260.624,311.514 260.716,311.348 262.500,313.625" stroke-width="5.035" stroke="black" fill="none" stroke-linecap="round"></path><path d="M 262.500,313.625 C 264.500,316.125 264.624,316.014 266.500,318.625" stroke-width="5.168" stroke="black" fill="none" stroke-linecap="round"></path><path d="M 266.500,318.625 C 268.668,321.008 268.500,321.125 270.500,323.625" stroke-width="5.031" stroke="black" fill="none" stroke-linecap="round"></path><path d="M 270.500,323.625 C 272.000,326.125 272.168,326.008 273.500,328.625" stroke-width="5.036" stroke="black" fill="none" stroke-linecap="round"></path><path d="M 273.500,328.625 C 274.832,331.242 275.000,331.125 276.500,333.625" stroke-width="5.152" stroke="black" fill="none" stroke-linecap="round"></path><path d="M 276.500,333.625 C 278.500,336.125 278.332,336.242 280.500,338.625" stroke-width="5.114" stroke="black" fill="none" stroke-linecap="round"></path><path d="M 280.500,338.625 C 282.148,341.509 282.500,341.125 284.500,343.625" stroke-width="5.124" stroke="black" fill="none" stroke-linecap="round"></path><path d="M 284.500,343.625 C 287.351,345.908 287.148,346.009 290.500,347.625" stroke-width="5.163" stroke="black" fill="none" stroke-linecap="round"></path><path d="M 290.500,347.625 C 292.899,349.152 292.851,348.908 295.500,349.625" stroke-width="5.216" stroke="black" fill="none" stroke-linecap="round"></path><path d="M 295.500,349.625 C 298.711,350.386 298.399,350.152 301.500,349.625" stroke-width="5.266" stroke="black" fill="none" stroke-linecap="round"></path><path d="M 301.500,349.625 C 303.901,347.925 304.211,348.886 306.500,346.625" stroke-width="5.104" stroke="black" fill="none" stroke-linecap="round"></path><path d="M 306.500,346.625 C 309.579,346.305 308.901,345.425 311.500,344.625" stroke-width="5.086" stroke="black" fill="none" stroke-linecap="round"></path><path d="M 311.500,344.625 C 313.388,342.293 313.579,342.805 314.500,339.625" stroke-width="5.204" stroke="black" fill="none" stroke-linecap="round"></path><path d="M 314.500,339.625 C 315.788,336.184 315.888,336.293 316.500,332.625" stroke-width="4.995" stroke="black" fill="none" stroke-linecap="round"></path><path d="M 316.500,332.625 C 317.232,328.639 317.288,328.684 317.500,324.625" stroke-width="4.672" stroke="black" fill="none" stroke-linecap="round"></path><path d="M 317.500,324.625 C 317.500,321.125 317.732,321.139 317.500,317.625" stroke-width="4.650" stroke="black" fill="none" stroke-linecap="round"></path><path d="M 317.500,317.625 C 317.500,314.625 317.500,314.625 317.500,311.625" stroke-width="4.726" stroke="black" fill="none" stroke-linecap="round"></path><path d="M 317.500,311.625 C 317.784,307.601 317.500,307.625 317.500,303.625" stroke-width="4.585" stroke="black" fill="none" stroke-linecap="round"></path><path d="M 317.500,303.625 C 318.164,299.765 317.284,300.601 316.500,297.625" stroke-width="4.878" stroke="black" fill="none" stroke-linecap="round"></path><path d="M 316.500,297.625 C 313.681,295.359 314.664,295.265 310.500,294.625" stroke-width="5.105" stroke="black" fill="none" stroke-linecap="round"></path><path d="M 310.500,294.625 C 307.000,294.625 307.181,293.859 303.500,294.625" stroke-width="4.984" stroke="black" fill="none" stroke-linecap="round"></path><path d="M 303.500,294.625 C 300.500,294.625 300.500,294.625 297.500,294.625" stroke-width="5.149" stroke="black" fill="none" stroke-linecap="round"></path><path d="M 297.500,294.625 C 294.399,294.098 294.500,294.625 291.500,294.625" stroke-width="5.294" stroke="black" fill="none" stroke-linecap="round"></path><path d="M 291.500,294.625 C 288.041,294.827 288.899,295.098 286.500,296.625" stroke-width="5.330" stroke="black" fill="none" stroke-linecap="round"></path><path d="M 286.500,296.625 C 285.730,299.098 285.041,298.327 285.500,301.625" stroke-width="5.369" stroke="black" fill="none" stroke-linecap="round"></path><path d="M 285.500,301.625 C 285.079,304.677 285.230,304.598 285.500,307.625" stroke-width="5.339" stroke="black" fill="none" stroke-linecap="round"></path><path d="M 285.500,307.625 C 285.702,312.030 286.079,311.677 287.500,315.625" stroke-width="5.085" stroke="black" fill="none" stroke-linecap="round"></path><path d="M 287.500,315.625 C 289.752,318.877 289.202,319.030 292.500,321.625" stroke-width="4.919" stroke="black" fill="none" stroke-linecap="round"></path><path d="M 292.500,321.625 C 294.883,323.793 294.752,323.877 297.500,325.625" stroke-width="4.772" stroke="black" fill="none" stroke-linecap="round"></path><path d="M 297.500,325.625 C 299.833,327.558 299.883,327.293 302.500,328.625" stroke-width="4.778" stroke="black" fill="none" stroke-linecap="round"></path><path d="M 302.500,328.625 C 305.000,329.125 304.833,329.558 307.500,329.625" stroke-width="4.843" stroke="black" fill="none" stroke-linecap="round"></path><path d="M 307.500,329.625 C 309.973,330.395 310.000,330.125 312.500,330.625" stroke-width="4.849" stroke="black" fill="none" stroke-linecap="round"></path><path d="M 312.500,330.625 C 315.500,330.625 315.473,330.895 318.500,330.625" stroke-width="4.770" stroke="black" fill="none" stroke-linecap="round"></path><path d="M 318.500,330.625 C 321.527,330.895 321.500,330.625 324.500,330.625" stroke-width="4.944" stroke="black" fill="none" stroke-linecap="round"></path><path d="M 324.500,330.625 C 327.068,330.355 327.027,330.395 329.500,329.625" stroke-width="5.055" stroke="black" fill="none" stroke-linecap="round"></path><path d="M 329.500,329.625 C 332.099,328.825 332.068,328.855 334.500,327.625" stroke-width="5.071" stroke="black" fill="none" stroke-linecap="round"></path><path d="M 334.500,327.625 C 336.942,326.020 337.099,326.325 339.500,324.625" stroke-width="5.048" stroke="black" fill="none" stroke-linecap="round"></path><path d="M 339.500,324.625 C 342.787,323.524 342.442,323.020 345.500,321.625" stroke-width="4.798" stroke="black" fill="none" stroke-linecap="round"></path><path d="M 345.500,321.625 C 347.777,319.841 347.787,320.024 349.500,317.625" stroke-width="4.801" stroke="black" fill="none" stroke-linecap="round"></path><path d="M 349.500,317.625 C 351.200,315.224 351.277,315.341 352.500,312.625" stroke-width="4.964" stroke="black" fill="none" stroke-linecap="round"></path><path d="M 352.500,312.625 C 353.500,310.125 353.700,310.224 354.500,307.625" stroke-width="4.874" stroke="black" fill="none" stroke-linecap="round"></path><path d="M 354.500,307.625 C 355.387,305.074 355.500,305.125 356.500,302.625" stroke-width="4.861" stroke="black" fill="none" stroke-linecap="round"></path><path d="M 356.500,302.625 C 358.364,299.750 357.887,299.574 359.500,296.625" stroke-width="4.921" stroke="black" fill="none" stroke-linecap="round"></path><path d="M 359.500,296.625 C 360.000,294.125 360.364,294.250 360.500,291.625" stroke-width="5.132" stroke="black" fill="none" stroke-linecap="round"></path><path d="M 360.500,291.625 C 361.270,289.152 361.000,289.125 361.500,286.625" stroke-width="5.198" stroke="black" fill="none" stroke-linecap="round"></path><path d="M 361.500,286.625 C 361.730,283.609 361.770,283.652 361.500,280.625" stroke-width="5.173" stroke="black" fill="none" stroke-linecap="round"></path><path d="M 361.500,280.625 C 362.074,276.511 361.230,277.109 360.500,273.625" stroke-width="5.180" stroke="black" fill="none" stroke-linecap="round"></path><path d="M 360.500,273.625 C 358.117,271.457 359.074,271.011 355.500,269.625" stroke-width="5.148" stroke="black" fill="none" stroke-linecap="round"></path><path d="M 355.500,269.625 C 353.058,268.020 353.117,267.957 350.500,266.625" stroke-width="5.162" stroke="black" fill="none" stroke-linecap="round"></path><path d="M 350.500,266.625 C 347.588,264.912 347.558,265.020 344.500,263.625" stroke-width="5.128" stroke="black" fill="none" stroke-linecap="round"></path><path d="M 344.500,263.625 C 341.579,262.138 341.588,262.412 338.500,261.625" stroke-width="5.136" stroke="black" fill="none" stroke-linecap="round"></path><path d="M 338.500,261.625 C 335.500,261.625 335.579,261.138 332.500,261.625" stroke-width="5.270" stroke="black" fill="none" stroke-linecap="round"></path><path d="M 332.500,261.625 C 329.161,260.658 329.500,261.625 326.500,261.625" stroke-width="5.318" stroke="black" fill="none" stroke-linecap="round"></path><path d="M 326.500,261.625 C 323.170,263.120 323.661,262.658 321.500,265.625" stroke-width="5.384" stroke="black" fill="none" stroke-linecap="round"></path><path d="M 321.500,265.625 C 320.730,268.098 320.170,267.620 320.500,270.625" stroke-width="5.348" stroke="black" fill="none" stroke-linecap="round"></path><path d="M 320.500,270.625 C 320.500,273.625 320.230,273.598 320.500,276.625" stroke-width="5.333" stroke="black" fill="none" stroke-linecap="round"></path><path d="M 320.500,276.625 C 319.973,279.726 320.500,279.625 320.500,282.625" stroke-width="5.314" stroke="black" fill="none" stroke-linecap="round"></path><path d="M 320.500,282.625 C 321.500,285.125 320.973,285.226 322.500,287.625" stroke-width="5.147" stroke="black" fill="none" stroke-linecap="round"></path><path d="M 322.500,287.625 C 323.217,290.274 323.500,290.125 324.500,292.625" stroke-width="5.188" stroke="black" fill="none" stroke-linecap="round"></path><path d="M 324.500,292.625 C 326.012,296.137 326.217,295.774 328.500,298.625" stroke-width="5.111" stroke="black" fill="none" stroke-linecap="round"></path><path d="M 328.500,298.625 C 330.862,300.426 330.512,300.637 333.500,301.625" stroke-width="5.059" stroke="black" fill="none" stroke-linecap="round"></path><path d="M 333.500,301.625 C 336.455,302.795 336.362,302.926 339.500,303.625" stroke-width="5.111" stroke="black" fill="none" stroke-linecap="round"></path><path d="M 339.500,303.625 C 341.973,304.395 341.955,304.295 344.500,304.625" stroke-width="5.244" stroke="black" fill="none" stroke-linecap="round"></path><path d="M 344.500,304.625 C 347.711,305.386 347.473,304.895 350.500,304.625" stroke-width="5.340" stroke="black" fill="none" stroke-linecap="round"></path><path d="M 350.500,304.625 C 353.900,303.759 353.211,303.886 355.500,301.625" stroke-width="5.411" stroke="black" fill="none" stroke-linecap="round"></path><path d="M 355.500,301.625 C 356.000,299.125 356.900,299.759 356.500,296.625" stroke-width="5.296" stroke="black" fill="none" stroke-linecap="round"></path><path d="M 356.500,296.625 C 357.270,294.152 357.000,294.125 357.500,291.625" stroke-width="5.303" stroke="black" fill="none" stroke-linecap="round"></path><path d="M 357.500,291.625 C 357.500,288.625 357.770,288.652 357.500,285.625" stroke-width="5.209" stroke="black" fill="none" stroke-linecap="round"></path><path d="M 357.500,285.625 C 357.500,282.125 357.500,282.125 357.500,278.625" stroke-width="5.204" stroke="black" fill="none" stroke-linecap="round"></path><path d="M 357.500,278.625 C 358.065,275.016 357.500,275.125 357.500,271.625" stroke-width="5.217" stroke="black" fill="none" stroke-linecap="round"></path><path d="M 357.500,271.625 C 356.870,268.909 357.065,269.016 355.500,266.625" stroke-width="5.201" stroke="black" fill="none" stroke-linecap="round"></path><path d="M 355.500,266.625 C 353.650,263.990 353.870,263.909 351.500,261.625" stroke-width="5.049" stroke="black" fill="none" stroke-linecap="round"></path><path d="M 351.500,261.625 C 348.254,258.838 348.650,258.490 345.500,255.625" stroke-width="4.868" stroke="black" fill="none" stroke-linecap="round"></path><path d="M 345.500,255.625 C 342.405,251.692 342.254,251.838 339.500,247.625" stroke-width="4.729" stroke="black" fill="none" stroke-linecap="round"></path><path d="M 339.500,247.625 C 337.435,244.666 337.405,244.692 335.500,241.625" stroke-width="4.649" stroke="black" fill="none" stroke-linecap="round"></path><path d="M 335.500,241.625 C 334.333,238.865 333.935,239.166 332.500,236.625" stroke-width="4.769" stroke="black" fill="none" stroke-linecap="round"></path><path d="M 332.500,236.625 C 329.167,233.885 329.833,233.365 326.500,230.625" stroke-width="4.579" stroke="black" fill="none" stroke-linecap="round"></path><path d="M 326.500,230.625 C 325.000,228.125 324.667,228.385 323.500,225.625" stroke-width="4.703" stroke="black" fill="none" stroke-linecap="round"></path><path d="M 323.500,225.625 C 322.000,223.125 322.000,223.125 320.500,220.625" stroke-width="4.771" stroke="black" fill="none" stroke-linecap="round"></path><path d="M 320.500,220.625 C 319.277,217.909 319.000,218.125 317.500,215.625" stroke-width="4.792" stroke="black" fill="none" stroke-linecap="round"></path><path d="M 317.500,215.625 C 315.101,213.912 315.777,213.409 313.500,211.625" stroke-width="4.972" stroke="black" fill="none" stroke-linecap="round"></path><path d="M 313.500,211.625 C 312.105,208.567 311.601,208.912 310.500,205.625" stroke-width="4.742" stroke="black" fill="none" stroke-linecap="round"></path><path d="M 310.500,205.625 C 309.168,203.008 309.105,203.067 307.500,200.625" stroke-width="4.769" stroke="black" fill="none" stroke-linecap="round"></path><path d="M 307.500,200.625 C 305.624,198.014 305.668,198.008 303.500,195.625" stroke-width="4.919" stroke="black" fill="none" stroke-linecap="round"></path><path d="M 303.500,195.625 C 301.376,193.736 301.624,193.514 299.500,191.625" stroke-width="5.019" stroke="black" fill="none" stroke-linecap="round"></path><path d="M 299.500,191.625 C 297.750,188.875 297.376,189.236 295.500,186.625" stroke-width="5.095" stroke="black" fill="none" stroke-linecap="round"></path><path d="M 295.500,186.625 C 292.594,184.980 293.250,184.375 290.500,182.625" stroke-width="4.802" stroke="black" fill="none" stroke-linecap="round"></path><path d="M 290.500,182.625 C 288.800,180.224 288.594,180.480 287.500,177.625" stroke-width="4.957" stroke="black" fill="none" stroke-linecap="round"></path><path d="M 287.500,177.625 C 286.870,174.909 286.300,175.224 285.500,172.625" stroke-width="5.121" stroke="black" fill="none" stroke-linecap="round"></path><path d="M 285.500,172.625 C 283.130,170.341 283.870,169.909 281.500,167.625" stroke-width="5.288" stroke="black" fill="none" stroke-linecap="round"></path><path d="M 281.500,167.625 C 279.757,162.625 280.130,165.341 279.500,162.625" stroke-width="5.367" stroke="black" fill="none" stroke-linecap="round"></path><path d="M 279.500,162.625 C 279.770,165.193 279.257,162.625 280.500,167.625" stroke-width="5.510" stroke="black" fill="none" stroke-linecap="round"></path><path d="M 280.500,167.625 C 281.500,170.125 281.270,170.193 282.500,172.625" stroke-width="5.004" stroke="black" fill="none" stroke-linecap="round"></path><path d="M 282.500,172.625 C 283.300,175.224 283.500,175.125 284.500,177.625" stroke-width="5.196" stroke="black" fill="none" stroke-linecap="round"></path><path d="M 284.500,177.625 C 286.000,180.125 285.800,180.224 287.500,182.625" stroke-width="5.290" stroke="black" fill="none" stroke-linecap="round"></path><path d="M 287.500,182.625 C 289.200,185.026 289.000,185.125 290.500,187.625" stroke-width="5.292" stroke="black" fill="none" stroke-linecap="round"></path><path d="M 290.500,187.625 C 290.947,190.490 291.700,190.026 292.500,192.625" stroke-width="5.140" stroke="black" fill="none" stroke-linecap="round"></path><path d="M 292.500,192.625 C 295.833,195.365 294.947,195.990 298.500,198.625" stroke-width="5.093" stroke="black" fill="none" stroke-linecap="round"></path><path d="M 298.500,198.625 C 299.832,201.242 300.333,200.865 301.500,203.625" stroke-width="5.146" stroke="black" fill="none" stroke-linecap="round"></path><path d="M 301.500,203.625 C 303.870,205.909 303.332,206.242 305.500,208.625" stroke-width="5.033" stroke="black" fill="none" stroke-linecap="round"></path><path d="M 305.500,208.625 C 305.987,211.463 306.870,210.909 307.500,213.625" stroke-width="5.153" stroke="black" fill="none" stroke-linecap="round"></path><path d="M 307.500,213.625 C 310.272,215.902 309.487,216.463 312.500,218.625" stroke-width="4.994" stroke="black" fill="none" stroke-linecap="round"></path><path d="M 312.500,218.625 C 314.565,221.584 314.772,221.402 316.500,224.625" stroke-width="5.105" stroke="black" fill="none" stroke-linecap="round"></path><path d="M 316.500,224.625 C 317.594,227.480 318.065,227.084 319.500,229.625" stroke-width="5.162" stroke="black" fill="none" stroke-linecap="round"></path><path d="M 319.500,229.625 C 322.384,231.273 321.594,231.980 324.500,233.625" stroke-width="5.152" stroke="black" fill="none" stroke-linecap="round"></path><path d="M 324.500,233.625 C 326.000,237.125 326.884,236.273 328.500,239.625" stroke-width="4.984" stroke="black" fill="none" stroke-linecap="round"></path><path d="M 328.500,239.625 C 331.620,241.465 331.000,242.125 334.500,243.625" stroke-width="4.936" stroke="black" fill="none" stroke-linecap="round"></path><path d="M 334.500,243.625 C 337.478,246.152 337.620,245.965 340.500,248.625" stroke-width="4.886" stroke="black" fill="none" stroke-linecap="round"></path><path d="M 340.500,248.625 C 342.883,250.793 342.978,250.652 345.500,252.625" stroke-width="4.956" stroke="black" fill="none" stroke-linecap="round"></path><path d="M 345.500,252.625 C 347.942,254.230 347.883,254.293 350.500,255.625" stroke-width="4.832" stroke="black" fill="none" stroke-linecap="round"></path><path d="M 350.500,255.625 C 353.686,256.834 353.442,257.230 356.500,258.625" stroke-width="4.921" stroke="black" fill="none" stroke-linecap="round"></path><path d="M 356.500,258.625 C 358.784,260.995 359.186,260.334 361.500,262.625" stroke-width="4.788" stroke="black" fill="none" stroke-linecap="round"></path><path d="M 361.500,262.625 C 364.000,263.625 363.784,263.995 366.500,264.625" stroke-width="4.987" stroke="black" fill="none" stroke-linecap="round"></path><path d="M 366.500,264.625 C 368.899,266.152 369.000,265.625 371.500,266.625" stroke-width="5.182" stroke="black" fill="none" stroke-linecap="round"></path><path d="M 371.500,266.625 C 374.527,266.895 374.399,267.152 377.500,266.625" stroke-width="5.168" stroke="black" fill="none" stroke-linecap="round"></path><path d="M 377.500,266.625 C 381.243,267.301 380.027,266.395 382.500,265.625" stroke-width="5.334" stroke="black" fill="none" stroke-linecap="round"></path><path d="M 382.500,265.625 C 383.249,262.143 384.243,263.301 383.500,258.625" stroke-width="5.201" stroke="black" fill="none" stroke-linecap="round"></path><path d="M 383.500,258.625 C 383.500,255.125 383.749,255.143 383.500,251.625" stroke-width="4.796" stroke="black" fill="none" stroke-linecap="round"></path><path d="M 383.500,251.625 C 383.500,248.125 383.500,248.125 383.500,244.625" stroke-width="4.892" stroke="black" fill="none" stroke-linecap="round"></path><path d="M 383.500,244.625 C 383.770,241.598 383.500,241.625 383.500,238.625" stroke-width="5.078" stroke="black" fill="none" stroke-linecap="round"></path><path d="M 383.500,238.625 C 383.000,236.125 383.270,236.098 382.500,233.625" stroke-width="5.097" stroke="black" fill="none" stroke-linecap="round"></path><path d="M 382.500,233.625 C 382.364,231.000 382.000,231.125 381.500,228.625" stroke-width="4.937" stroke="black" fill="none" stroke-linecap="round"></path><path d="M 381.500,228.625 C 380.105,225.567 380.364,225.500 378.500,222.625" stroke-width="4.953" stroke="black" fill="none" stroke-linecap="round"></path><path d="M 378.500,222.625 C 377.168,220.008 377.105,220.067 375.500,217.625" stroke-width="5.012" stroke="black" fill="none" stroke-linecap="round"></path><path d="M 375.500,217.625 C 373.624,215.014 373.668,215.008 371.500,212.625" stroke-width="5.157" stroke="black" fill="none" stroke-linecap="round"></path><path d="M 371.500,212.625 C 369.500,210.625 369.624,210.514 367.500,208.625" stroke-width="5.448" stroke="black" fill="none" stroke-linecap="round"></path><path d="M 367.500,208.625 C 365.805,206.162 365.500,206.625 363.500,204.625" stroke-width="5.406" stroke="black" fill="none" stroke-linecap="round"></path><path d="M 363.500,204.625 C 359.909,201.686 361.305,203.162 358.500,202.625" stroke-width="5.511" stroke="black" fill="none" stroke-linecap="round"></path><path d="M 358.500,202.625 C 357.752,205.604 356.909,203.686 357.500,208.625" stroke-width="5.280" stroke="black" fill="none" stroke-linecap="round"></path><path d="M 357.500,208.625 C 357.230,211.652 357.252,211.604 357.500,214.625" stroke-width="5.332" stroke="black" fill="none" stroke-linecap="round"></path><path d="M 357.500,214.625 C 357.243,217.530 357.730,217.152 358.500,219.625" stroke-width="4.987" stroke="black" fill="none" stroke-linecap="round"></path><path d="M 358.500,219.625 C 361.000,222.125 360.243,222.530 363.500,224.625" stroke-width="4.962" stroke="black" fill="none" stroke-linecap="round"></path><path d="M 363.500,224.625 C 365.610,226.525 365.500,226.625 367.500,228.625" stroke-width="4.864" stroke="black" fill="none" stroke-linecap="round"></path><path d="M 367.500,228.625 C 369.752,231.877 370.110,231.525 372.500,234.625" stroke-width="4.874" stroke="black" fill="none" stroke-linecap="round"></path><path d="M 372.500,234.625 C 375.384,236.273 374.752,236.877 377.500,238.625" stroke-width="5.049" stroke="black" fill="none" stroke-linecap="round"></path><path d="M 377.500,238.625 C 379.258,241.823 379.884,241.273 381.500,244.625" stroke-width="5.069" stroke="black" fill="none" stroke-linecap="round"></path><path d="M 381.500,244.625 C 383.500,246.625 383.258,246.823 385.500,248.625" stroke-width="5.163" stroke="black" fill="none" stroke-linecap="round"></path><path d="M 385.500,248.625 C 387.500,250.625 387.500,250.625 389.500,252.625" stroke-width="5.188" stroke="black" fill="none" stroke-linecap="round"></path><path d="M 389.500,252.625 C 391.500,254.625 391.500,254.625 393.500,256.625" stroke-width="5.234" stroke="black" fill="none" stroke-linecap="round"></path><path d="M 393.500,256.625 C 395.777,258.409 395.500,258.625 397.500,260.625" stroke-width="5.314" stroke="black" fill="none" stroke-linecap="round"></path><path d="M 397.500,260.625 C 398.935,263.166 399.277,262.909 400.500,265.625" stroke-width="5.343" stroke="black" fill="none" stroke-linecap="round"></path><path d="M 400.500,265.625 C 402.687,268.517 402.435,268.666 404.500,271.625" stroke-width="5.155" stroke="black" fill="none" stroke-linecap="round"></path><path d="M 404.500,271.625 C 406.859,274.422 406.187,274.517 407.500,277.625" stroke-width="5.236" stroke="black" fill="none" stroke-linecap="round"></path><path d="M 407.500,277.625 C 407.500,282.125 408.359,281.922 407.500,286.625" stroke-width="5.126" stroke="black" fill="none" stroke-linecap="round"></path><path d="M 407.500,286.625 C 408.053,291.202 407.500,291.125 407.500,295.625" stroke-width="4.610" stroke="black" fill="none" stroke-linecap="round"></path><path d="M 407.500,295.625 C 406.722,299.204 407.053,299.202 405.500,302.625" stroke-width="4.118" stroke="black" fill="none" stroke-linecap="round"></path><path d="M 405.500,302.625 C 403.950,306.104 404.222,306.204 402.500,309.625" stroke-width="3.898" stroke="black" fill="none" stroke-linecap="round"></path><path d="M 402.500,309.625 C 400.657,314.695 400.450,314.604 398.500,319.625" stroke-width="3.568" stroke="black" fill="none" stroke-linecap="round"></path><path d="M 398.500,319.625 C 396.918,322.586 397.157,322.695 395.500,325.625" stroke-width="3.882" stroke="black" fill="none" stroke-linecap="round"></path><path d="M 395.500,325.625 C 393.699,330.226 393.418,330.086 391.500,334.625" stroke-width="4.186" stroke="black" fill="none" stroke-linecap="round"></path><path d="M 391.500,334.625 C 389.500,338.125 389.699,338.226 387.500,341.625" stroke-width="4.626" stroke="black" fill="none" stroke-linecap="round"></path><path d="M 387.500,341.625 C 385.851,345.393 385.500,345.125 383.500,348.625" stroke-width="4.552" stroke="black" fill="none" stroke-linecap="round"></path><path d="M 383.500,348.625 C 381.223,350.409 381.851,350.893 379.500,352.625" stroke-width="4.358" stroke="black" fill="none" stroke-linecap="round"></path><path d="M 379.500,352.625 C 378.271,355.323 377.723,354.909 376.500,357.625" stroke-width="4.190" stroke="black" fill="none" stroke-linecap="round"></path><path d="M 376.500,357.625 C 372.816,361.480 373.271,361.823 369.500,365.625" stroke-width="3.652" stroke="black" fill="none" stroke-linecap="round"></path><path d="M 369.500,365.625 C 367.209,369.291 366.816,368.980 364.500,372.625" stroke-width="3.710" stroke="black" fill="none" stroke-linecap="round"></path><path d="M 364.500,372.625 C 360.483,377.110 360.709,377.291 356.500,381.625" stroke-width="3.345" stroke="black" fill="none" stroke-linecap="round"></path><path d="M 356.500,381.625 C 352.777,385.454 352.983,385.610 349.500,389.625" stroke-width="3.425" stroke="black" fill="none" stroke-linecap="round"></path><path d="M 349.500,389.625 C 347.797,392.869 347.277,392.454 345.500,395.625" stroke-width="3.730" stroke="black" fill="none" stroke-linecap="round"></path><path d="M 345.500,395.625 C 342.350,398.490 342.797,398.869 339.500,401.625" stroke-width="3.745" stroke="black" fill="none" stroke-linecap="round"></path><path d="M 339.500,401.625 C 337.624,404.236 337.350,403.990 335.500,406.625" stroke-width="3.977" stroke="black" fill="none" stroke-linecap="round"></path><path d="M 335.500,406.625 C 333.500,408.625 333.624,408.736 331.500,410.625" stroke-width="4.101" stroke="black" fill="none" stroke-linecap="round"></path><path d="M 331.500,410.625 C 329.401,412.534 329.500,412.625 327.500,414.625" stroke-width="4.184" stroke="black" fill="none" stroke-linecap="round"></path><path d="M 327.500,414.625 C 324.519,418.141 324.401,418.034 321.500,421.625" stroke-width="4.331" stroke="black" fill="none" stroke-linecap="round"></path><path d="M 321.500,421.625 C 318.125,425.742 318.019,425.641 314.500,429.625" stroke-width="4.299" stroke="black" fill="none" stroke-linecap="round"></path><path d="M 314.500,429.625 C 310.840,432.982 311.125,433.242 307.500,436.625" stroke-width="4.318" stroke="black" fill="none" stroke-linecap="round"></path><path d="M 307.500,436.625 C 305.660,439.268 305.340,438.982 303.500,441.625" stroke-width="4.153" stroke="black" fill="none" stroke-linecap="round"></path><path d="M 303.500,441.625 C 300.000,445.125 300.160,445.268 296.500,448.625" stroke-width="4.273" stroke="black" fill="none" stroke-linecap="round"></path><path d="M 296.500,448.625 C 294.223,450.409 294.500,450.625 292.500,452.625" stroke-width="4.236" stroke="black" fill="none" stroke-linecap="round"></path><path d="M 292.500,452.625 C 291.277,455.341 290.723,454.909 289.500,457.625" stroke-width="4.203" stroke="black" fill="none" stroke-linecap="round"></path><path d="M 289.500,457.625 C 287.611,459.749 287.777,459.841 285.500,461.625" stroke-width="4.170" stroke="black" fill="none" stroke-linecap="round"></path><path d="M 285.500,461.625 C 280.735,466.095 283.111,463.749 280.500,465.625" stroke-width="4.710" stroke="black" fill="none" stroke-linecap="round"></path><path d="M 280.500,465.625 C 283.100,462.891 280.235,465.095 284.500,459.625" stroke-width="5.222" stroke="black" fill="none" stroke-linecap="round"></path><path d="M 284.500,459.625 C 285.438,455.608 286.100,455.891 286.500,451.625" stroke-width="4.128" stroke="black" fill="none" stroke-linecap="round"></path><path d="M 286.500,451.625 C 287.290,448.053 287.438,448.108 288.500,444.625" stroke-width="3.941" stroke="black" fill="none" stroke-linecap="round"></path><path d="M 288.500,444.625 C 290.461,439.609 290.290,439.553 292.500,434.625" stroke-width="3.579" stroke="black" fill="none" stroke-linecap="round"></path><path d="M 292.500,434.625 C 294.516,428.380 294.961,428.609 297.500,422.625" stroke-width="3.296" stroke="black" fill="none" stroke-linecap="round"></path><path d="M 297.500,422.625 C 301.553,414.821 301.516,414.880 306.500,407.625" stroke-width="2.845" stroke="black" fill="none" stroke-linecap="round"></path><path d="M 306.500,407.625 C 313.000,399.125 312.553,398.821 319.500,390.625" stroke-width="2.587" stroke="black" fill="none" stroke-linecap="round"></path><path d="M 319.500,390.625 C 325.817,381.979 326.000,382.125 332.500,373.625" stroke-width="2.518" stroke="black" fill="none" stroke-linecap="round"></path><path d="M 332.500,373.625 C 342.000,362.125 341.817,361.979 351.500,350.625" stroke-width="2.165" stroke="black" fill="none" stroke-linecap="round"></path><path d="M 351.500,350.625 C 359.832,337.997 361.000,339.125 370.500,327.625" stroke-width="2.020" stroke="black" fill="none" stroke-linecap="round"></path><path d="M 370.500,327.625 C 397.223,304.370 395.832,302.997 423.500,280.625" stroke-width="1.263" stroke="black" fill="none" stroke-linecap="round"></path><path d="M 423.500,280.625 C 438.492,266.616 438.723,266.870 453.500,252.625" stroke-width="1.468" stroke="black" fill="none" stroke-linecap="round"></path><path d="M 453.500,252.625 C 467.909,239.025 467.992,239.116 482.500,225.625" stroke-width="1.616" stroke="black" fill="none" stroke-linecap="round"></path><path d="M 482.500,225.625 C 492.594,216.727 492.409,216.525 502.500,207.625" stroke-width="1.972" stroke="black" fill="none" stroke-linecap="round"></path><path d="M 502.500,207.625 C 511.393,200.002 511.094,199.727 519.500,191.625" stroke-width="2.183" stroke="black" fill="none" stroke-linecap="round"></path><path d="M 519.500,191.625 C 525.785,183.924 526.393,184.502 532.500,176.625" stroke-width="2.456" stroke="black" fill="none" stroke-linecap="round"></path><path d="M 532.500,176.625 C 537.777,171.873 537.285,171.424 542.500,166.625" stroke-width="2.856" stroke="black" fill="none" stroke-linecap="round"></path><path d="M 542.500,166.625 C 546.430,161.567 546.777,161.873 550.500,156.625" stroke-width="3.039" stroke="black" fill="none" stroke-linecap="round"></path><path d="M 550.500,156.625 C 553.703,153.283 553.430,153.067 556.500,149.625" stroke-width="3.440" stroke="black" fill="none" stroke-linecap="round"></path><path d="M 556.500,149.625 C 560.116,144.702 560.203,144.783 563.500,139.625" stroke-width="3.322" stroke="black" fill="none" stroke-linecap="round"></path><path d="M 563.500,139.625 C 566.272,135.763 566.116,135.702 568.500,131.625" stroke-width="3.524" stroke="black" fill="none" stroke-linecap="round"></path><path d="M 568.500,131.625 C 569.300,129.026 569.772,129.263 570.500,126.625" stroke-width="4.350" stroke="black" fill="none" stroke-linecap="round"></path><path d="M 570.500,126.625 C 572.521,124.317 571.800,124.026 573.500,121.625" stroke-width="4.983" stroke="black" fill="none" stroke-linecap="round"></path><path d="M 573.500,121.625 C 573.956,118.617 574.521,118.817 574.500,115.625" stroke-width="5.161" stroke="black" fill="none" stroke-linecap="round"></path><path d="M 574.500,115.625 C 575.000,113.125 574.956,113.117 575.500,110.625" stroke-width="5.207" stroke="black" fill="none" stroke-linecap="round"></path><path d="M 575.500,110.625 C 576.000,108.125 576.000,108.125 576.500,105.625" stroke-width="5.135" stroke="black" fill="none" stroke-linecap="round"></path><path d="M 576.500,105.625 C 577.270,103.152 577.000,103.125 577.500,100.625" stroke-width="5.249" stroke="black" fill="none" stroke-linecap="round"></path><path d="M 577.500,100.625 C 577.500,97.625 577.770,97.652 577.500,94.625" stroke-width="5.280" stroke="black" fill="none" stroke-linecap="round"></path><path d="M 341.500,178.625 C 340.739,181.836 341.500,181.625 341.500,184.625" stroke-width="5.583" stroke="black" fill="none" stroke-linecap="round"></path><path d="M 341.500,184.625 C 342.366,188.025 342.239,187.336 344.500,189.625" stroke-width="5.541" stroke="black" fill="none" stroke-linecap="round"></path><path d="M 344.500,189.625 C 348.000,191.625 346.366,191.025 349.500,190.625" stroke-width="5.370" stroke="black" fill="none" stroke-linecap="round"></path><path d="M 349.500,190.625 C 350.270,188.152 351.000,189.625 350.500,185.625" stroke-width="5.501" stroke="black" fill="none" stroke-linecap="round"></path><path d="M 350.500,185.625 C 351.529,182.199 350.770,182.652 350.500,179.625" stroke-width="5.395" stroke="black" fill="none" stroke-linecap="round"></path><path d="M 350.500,179.625 C 348.926,176.596 349.529,177.199 346.500,175.625" stroke-width="5.451" stroke="black" fill="none" stroke-linecap="round"></path><circle r="1.5" cx="345.5" cy="174.625" fill="black"></circle><circle r="1.5" cx="343.5" cy="175.625" fill="black"></circle><circle r="1.5" cx="342.5" cy="177.625" fill="black"></circle><circle r="1.5" cx="341.3333282470703" cy="174.95833587646484" fill="black"></circle></svg>